# xmcd CD database file
#
# Track frame offsets:
#	150
#	18020
#	33206
#	50669
#	67558
#	84141
#	101543
#	115681
#	134390
#	151645
#	166816
#	183660
#	201432
#	217578
#
# Disc length: 3090 seconds
#
# Revision: 1
# Processed by: cddbd v1.5.2PL0 Copyright (c) Steve Scherf et al.
# Submitted via: CDex 1.50Beta6
#
DISCID=9e0c100e
DTITLE=Matto grosso e Mathias - 2007
DYEAR=2006
DGENRE=Sertaneja
TTITLE0=Um Século Sem Ti
TTITLE1=Chorei Por Ela
TTITLE2=Só Quem Ama Entende
TTITLE3=Eu Me Perdi
TTITLE4=Aos Trancos e Barrancos
TTITLE5=Vazio da Solidão
TTITLE6=Coisa Mandada
TTITLE7=Seu Corpo Em Meu Corpo
TTITLE8=Seu Corpo Em Meu Corpo
TTITLE9=Mulheres do Brasil
TTITLE10=Linha da Pipa
TTITLE11=Caiu, Quebrou
TTITLE12=O Voo do Condor
TTITLE13=Depois das Seis
EXTD=YEAR: 2006
EXTT0=
EXTT1=
EXTT2=
EXTT3=
EXTT4=
EXTT5=
EXTT6=
EXTT7=
EXTT8=
EXTT9=
EXTT10=
EXTT11=
EXTT12=
EXTT13=
PLAYORDER=
